<svg width="25" height="22" viewBox="0 0 25 22" fill="none" xmlns="http://www.w3.org/2000/svg">
<path d="M14 14.5C14.4142 14.5 14.75 14.7938 14.75 15.1562C14.75 15.5187 14.4142 15.8125 14 15.8125H11C10.5858 15.8125 10.25 15.5187 10.25 15.1562C10.25 14.7938 10.5858 14.5 11 14.5H14ZM17 10.125C17.4142 10.125 17.75 10.4188 17.75 10.7812C17.75 11.1437 17.4142 11.4375 17 11.4375H8C7.58579 11.4375 7.25 11.1437 7.25 10.7812C7.25 10.4188 7.58579 10.125 8 10.125H17ZM20 5.75C20.4142 5.75 20.75 6.04382 20.75 6.40625C20.75 6.76868 20.4142 7.0625 20 7.0625H5C4.58579 7.0625 4.25 6.76868 4.25 6.40625C4.25 6.04382 4.58579 5.75 5 5.75H20Z" fill="white"/>
</svg>
