<svg width="31" height="25" viewBox="0 0 31 25" fill="none" xmlns="http://www.w3.org/2000/svg">
<path d="M29.7833 0.730957H1.20696C0.538197 0.730957 -0.00390625 1.27306 -0.00390625 1.94182C-0.00390625 2.61058 0.538197 3.15268 1.20696 3.15268H29.7833C30.452 3.15268 30.9942 2.61058 30.9942 1.94182C30.9942 1.27306 30.452 0.730957 29.7833 0.730957Z" fill="white"/>
<path d="M29.7833 9.15283H1.20696C0.538197 9.15283 -0.00390625 9.69493 -0.00390625 10.3637C-0.00390625 11.0325 0.538197 11.5746 1.20696 11.5746H29.7833C30.452 11.5746 30.9942 11.0325 30.9942 10.3637C30.9942 9.69493 30.452 9.15283 29.7833 9.15283Z" fill="white"/>
<path d="M6.07021 24.3129C5.37142 24.2539 4.74429 23.9081 4.52928 23.1997C4.06342 23.866 3.4363 24.2792 2.39707 24.3129C0.712803 24.2539 -0.00390625 23.1491 -0.00390625 22.1286C-0.00390625 21.9768 0.0140115 21.8081 0.0588058 21.6563C0.202148 21.0997 0.775515 19.9527 2.42395 19.9527C3.74986 19.9527 4.84284 20.7033 4.84284 22.0358C4.84284 22.7949 4.77117 23.9756 6.07021 24.0937V24.3129ZM2.56729 24.0768C3.44526 24.0768 4.22468 23.5033 4.22468 22.1961C4.22468 20.8888 3.33775 20.1466 2.39707 20.1466C1.34888 20.1466 0.632173 20.7707 0.632173 21.9683C0.632173 23.2419 1.45639 24.0768 2.56729 24.0768ZM2.33436 18.8731C2.33436 19.1177 2.1283 19.3117 1.8685 19.3117C1.60869 19.3117 1.40264 19.1261 1.40264 18.8731C1.40264 18.6201 1.61765 18.4346 1.8685 18.4346C2.11935 18.4346 2.33436 18.6285 2.33436 18.8731ZM3.46318 18.8731C3.46318 19.1177 3.24816 19.3117 2.99731 19.3117C2.74647 19.3117 2.53145 19.1261 2.53145 18.8731C2.53145 18.6201 2.73751 18.4346 2.99731 18.4346C3.25712 18.4346 3.46318 18.6285 3.46318 18.8731Z" fill="white"/>
<path d="M6.07031 24.0853C7.20809 24.0347 7.35143 23.0396 7.30664 22.3311C7.30664 22.2636 7.29768 22.1962 7.29768 22.1203C7.29768 21.1588 8.09502 19.9443 9.71657 19.9443C11.1769 19.9443 12.1355 20.8046 12.1355 22.0359C12.1355 22.6432 12.0817 23.5203 12.7357 23.8998C12.9238 24.0094 13.1478 24.0769 13.3539 24.0853V24.3046C12.6551 24.254 12.0369 23.8998 11.8219 23.1914C11.7682 23.2504 11.7502 23.3179 11.7054 23.3685C11.2037 23.9757 10.5408 24.3046 9.68074 24.3046C8.71318 24.3046 7.93376 23.8661 7.61124 23.242C7.37831 23.9167 6.76015 24.254 6.07031 24.3046V24.0853ZM9.93159 24.0853C10.1287 24.0853 10.3168 24.0263 10.5318 23.9504C10.9171 23.8323 11.5083 23.3685 11.5083 22.2046C11.5083 20.948 10.7379 20.172 9.68074 20.172C8.62359 20.172 7.9248 20.7709 7.9248 21.9853C7.9248 23.3685 8.80277 24.0938 9.93159 24.0938V24.0853Z" fill="white"/>
<path d="M13.3535 24.0849C13.5685 24.0849 13.7746 24.009 13.9717 23.8994C14.5361 23.5704 14.5719 22.9295 14.5719 22.3475V20.4668C14.5719 20.2728 14.5361 20.0451 14.2404 20.0451C14.0523 20.0451 14.0433 20.0451 14.0433 19.9945C14.0433 19.9776 14.0523 19.9608 14.0792 19.9523C14.545 19.9523 15.0019 19.9439 15.4589 19.9439C15.5305 19.9439 15.5574 19.9608 15.5574 19.9945C15.5574 20.0957 15.1363 19.9439 15.1363 20.3572V21.5463C15.1363 22.8367 15.1901 24.1608 13.3535 24.2958V24.0765V24.0849ZM13.5058 19.615C13.5864 19.4547 13.7567 19.3367 13.9358 19.2776C13.6133 19.2102 13.4341 18.9318 13.4341 18.6282C13.4341 18.2487 13.7746 17.962 14.1688 17.962H15.0467C15.3872 17.962 15.9158 18.0041 16.1308 17.6499C16.0591 17.7511 15.9516 18.0547 15.6291 18.1306C15.3603 18.1981 14.4734 18.1475 13.9448 18.1728C13.7119 18.1728 13.6133 18.4258 13.6133 18.5861C13.6133 18.8728 13.7746 19.1596 14.0881 19.2186H16.1935V19.3114H14.1956C13.9358 19.3114 13.7208 19.4716 13.5058 19.615Z" fill="white"/>
<path d="M18.9461 24.3128C17.1991 24.1779 17.1633 22.9803 17.1633 21.749V18.2321C17.1633 17.9706 17.1633 17.8104 17.0647 17.726C17.011 17.6839 16.7422 17.6754 16.7422 17.6164C16.7422 17.5827 16.7691 17.5742 16.8407 17.5742H18.1487C18.2025 17.5742 18.2473 17.5742 18.2473 17.6164C18.2473 17.6333 18.2204 17.6586 18.1935 17.6586C17.8262 17.6586 17.7366 17.7513 17.7366 17.979C17.7366 19.1682 17.7277 21.4369 17.7277 22.3478C17.7277 23.0731 17.8352 24.0092 18.955 24.0851V24.3044L18.9461 24.3128Z" fill="white"/>
<path d="M22.8225 19.9442C24.1485 19.9442 25.2414 20.6948 25.2414 22.0274C25.2414 22.8708 24.7756 23.7141 23.8887 24.0852H26.6928V24.3045H18.9434V24.0852H21.6669C20.7441 23.6551 20.4037 22.8202 20.4037 22.1202C20.4037 21.3527 21.0218 19.9442 22.8315 19.9442H22.8225ZM22.9569 24.0768C23.8259 24.0768 24.6143 23.5202 24.6143 22.1961C24.6143 20.8719 23.7811 20.1466 22.7867 20.1466C21.7923 20.1466 21.0308 20.7707 21.0308 21.9683C21.0308 23.3684 21.9625 24.0768 22.9659 24.0768H22.9569ZM22.7419 18.8731C22.7419 19.1177 22.5359 19.3117 22.2761 19.3117C22.0163 19.3117 21.8102 19.1261 21.8102 18.8731C21.8102 18.6201 22.0252 18.4346 22.2761 18.4346C22.5269 18.4346 22.7419 18.6285 22.7419 18.8731ZM23.8707 18.8731C23.8707 19.1177 23.6557 19.3117 23.4049 19.3117C23.154 19.3117 22.939 19.1261 22.939 18.8731C22.939 18.6201 23.1451 18.4346 23.4049 18.4346C23.6647 18.4346 23.8707 18.6285 23.8707 18.8731Z" fill="white"/>
<path d="M26.6934 24.0938C27.8043 24.0179 27.9207 23.0817 27.9207 22.3564V20.8215C27.9207 20.7456 27.9207 18.2913 27.9207 18.2407C27.9207 17.9034 27.9207 17.7431 27.7147 17.7009C27.6609 17.6841 27.4101 17.6925 27.4101 17.6335C27.4101 17.5913 27.4549 17.5913 27.5086 17.5913H28.8166C28.8883 17.5913 28.9152 17.5997 28.9152 17.6335C28.9152 17.6503 28.8883 17.6756 28.8704 17.6756C28.5478 17.6756 28.4941 17.7853 28.4941 18.1058V21.1335C28.4941 22.5335 28.727 24.1697 26.7113 24.3215V24.1022L26.6934 24.0938Z" fill="white"/>
<path d="M29.9102 17.9875C29.9012 17.7345 29.7937 17.667 29.5428 17.667C29.507 17.667 29.498 17.6501 29.498 17.6333C29.498 17.608 29.5339 17.5742 29.5966 17.5742H30.9046C30.9583 17.5742 31.0031 17.608 31.0031 17.6333C31.0031 17.6501 30.9852 17.667 30.9583 17.667C30.6985 17.667 30.5194 17.6839 30.5014 17.9875C30.4656 18.4851 30.4835 18.9995 30.4925 23.6466C30.4925 24.1863 30.6089 24.2116 30.9583 24.2116C30.9942 24.2116 31.0031 24.2285 31.0031 24.2454C31.0031 24.2707 30.9673 24.3044 30.9046 24.3044H29.5966C29.5428 24.3044 29.498 24.2707 29.498 24.2454C29.498 24.2285 29.507 24.2116 29.5428 24.2116C29.8654 24.2032 29.9012 24.0767 29.9191 23.7815V17.9875H29.9102Z" fill="white"/>
</svg>
